<svg width="50" height="50" viewBox="0 0 50 50" fill="none" xmlns="http://www.w3.org/2000/svg">
<path d="M8.33319 15.8331C6.66652 8.61089 8.05541 4.44423 12.4999 3.33312C15.8332 2.77756 17.2221 5.55534 16.6665 11.6664L8.33319 15.8331Z" fill="#E8E3DB"/>
<path opacity="0.7" d="M9.99963 15.0005C8.88852 10.0005 9.72185 6.94491 12.4996 5.8338C14.7219 5.27825 15.5552 7.22269 14.9996 11.6671L9.99963 15.0005Z" fill="#FAB338"/>
<path d="M41.6662 15.8331C43.3329 8.61089 41.944 4.44423 37.4996 3.33312C34.1662 2.77756 32.7774 5.55534 33.3329 11.6664L41.6662 15.8331Z" fill="#E8E3DB"/>
<path opacity="0.7" d="M39.9997 15.0005C41.1108 10.0005 40.2775 6.94491 37.4997 5.8338C35.2775 5.27825 34.4441 7.22269 34.9997 11.6671L39.9997 15.0005Z" fill="#FAB338"/>
<path d="M25.0003 45.833C35.1255 45.833 43.3337 37.998 43.3337 28.333C43.3337 18.668 35.1255 10.833 25.0003 10.833C14.8751 10.833 6.66699 18.668 6.66699 28.333C6.66699 37.998 14.8751 45.833 25.0003 45.833Z" fill="#E8E3DB"/>
<path opacity="0.75" d="M16.6667 30.4167C20.3486 30.4167 23.3333 28.3646 23.3333 25.8333C23.3333 23.302 20.3486 21.25 16.6667 21.25C12.9848 21.25 10 23.302 10 25.8333C10 28.3646 12.9848 30.4167 16.6667 30.4167Z" fill="#15181E"/>
<path opacity="0.75" d="M33.3337 30.4167C37.0156 30.4167 40.0003 28.3646 40.0003 25.8333C40.0003 23.302 37.0156 21.25 33.3337 21.25C29.6518 21.25 26.667 23.302 26.667 25.8333C26.667 28.3646 29.6518 30.4167 33.3337 30.4167Z" fill="#15181E"/>
<path opacity="0.55" d="M26.667 23.75H23.3337C22.4132 23.75 21.667 24.4962 21.667 25.4167V26.25C21.667 27.1705 22.4132 27.9167 23.3337 27.9167H26.667C27.5875 27.9167 28.3337 27.1705 28.3337 26.25V25.4167C28.3337 24.4962 27.5875 23.75 26.667 23.75Z" fill="#15181E"/>
<path d="M16.6663 28.3333C18.5073 28.3333 19.9997 27.0275 19.9997 25.4167C19.9997 23.8058 18.5073 22.5 16.6663 22.5C14.8254 22.5 13.333 23.8058 13.333 25.4167C13.333 27.0275 14.8254 28.3333 16.6663 28.3333Z" fill="white"/>
<path d="M33.3333 28.3333C35.1743 28.3333 36.6667 27.0275 36.6667 25.4167C36.6667 23.8058 35.1743 22.5 33.3333 22.5C31.4924 22.5 30 23.8058 30 25.4167C30 27.0275 31.4924 28.3333 33.3333 28.3333Z" fill="white"/>
<path d="M17.0833 27.4997C18.2339 27.4997 19.1667 26.5669 19.1667 25.4163C19.1667 24.2657 18.2339 23.333 17.0833 23.333C15.9327 23.333 15 24.2657 15 25.4163C15 26.5669 15.9327 27.4997 17.0833 27.4997Z" fill="#FAAF2E"/>
<path d="M33.7503 27.4997C34.9009 27.4997 35.8337 26.5669 35.8337 25.4163C35.8337 24.2657 34.9009 23.333 33.7503 23.333C32.5997 23.333 31.667 24.2657 31.667 25.4163C31.667 26.5669 32.5997 27.4997 33.7503 27.4997Z" fill="#FAAF2E"/>
<path d="M17.4997 26.8747C18.075 26.8747 18.5413 26.2218 18.5413 25.4163C18.5413 24.6109 18.075 23.958 17.4997 23.958C16.9244 23.958 16.458 24.6109 16.458 25.4163C16.458 26.2218 16.9244 26.8747 17.4997 26.8747Z" fill="#0D0E12"/>
<path d="M34.1667 26.8747C34.742 26.8747 35.2083 26.2218 35.2083 25.4163C35.2083 24.6109 34.742 23.958 34.1667 23.958C33.5914 23.958 33.125 24.6109 33.125 25.4163C33.125 26.2218 33.5914 26.8747 34.1667 26.8747Z" fill="#0D0E12"/>
<path opacity="0.9" d="M18.125 25C18.4702 25 18.75 24.7202 18.75 24.375C18.75 24.0298 18.4702 23.75 18.125 23.75C17.7798 23.75 17.5 24.0298 17.5 24.375C17.5 24.7202 17.7798 25 18.125 25Z" fill="white"/>
<path opacity="0.9" d="M34.792 25C35.1372 25 35.417 24.7202 35.417 24.375C35.417 24.0298 35.1372 23.75 34.792 23.75C34.4468 23.75 34.167 24.0298 34.167 24.375C34.167 24.7202 34.4468 25 34.792 25Z" fill="white"/>
<path opacity="0.8" d="M25.0003 32.5003C26.1509 32.5003 27.0837 31.7541 27.0837 30.8337C27.0837 29.9132 26.1509 29.167 25.0003 29.167C23.8497 29.167 22.917 29.9132 22.917 30.8337C22.917 31.7541 23.8497 32.5003 25.0003 32.5003Z" fill="#1E2229"/>
<path opacity="0.4" d="M24.3753 30.7917C24.6975 30.7917 24.9587 30.5305 24.9587 30.2083C24.9587 29.8862 24.6975 29.625 24.3753 29.625C24.0532 29.625 23.792 29.8862 23.792 30.2083C23.792 30.5305 24.0532 30.7917 24.3753 30.7917Z" fill="white"/>
<path opacity="0.4" d="M23.333 34.5833L24.9997 32.5L26.6663 34.5833" stroke="#1E2229" stroke-width="0.425" stroke-linecap="round"/>
<path opacity="0.5" d="M21.25 35C23.75 36.6667 26.25 36.6667 28.75 35" stroke="#1E2229" stroke-width="0.51" stroke-linecap="round"/>
<path opacity="0.4" d="M9.16634 32.9167C11.0073 32.9167 12.4997 31.9839 12.4997 30.8333C12.4997 29.6827 11.0073 28.75 9.16634 28.75C7.32539 28.75 5.83301 29.6827 5.83301 30.8333C5.83301 31.9839 7.32539 32.9167 9.16634 32.9167Z" fill="black"/>
<path opacity="0.4" d="M40.8333 32.9167C42.6743 32.9167 44.1667 31.9839 44.1667 30.8333C44.1667 29.6827 42.6743 28.75 40.8333 28.75C38.9924 28.75 37.5 29.6827 37.5 30.8333C37.5 31.9839 38.9924 32.9167 40.8333 32.9167Z" fill="black"/>
<path opacity="0.2" d="M21.667 14.1667C23.8892 12.7778 26.1114 12.7778 28.3337 14.1667" stroke="#1E2229" stroke-width="0.708333" stroke-linecap="round"/>
</svg>
