<svg width="734" height="760" viewBox="0 0 734 760" fill="none" xmlns="http://www.w3.org/2000/svg">
<path d="M209.5 520.5L130 424L183 286L292 202H445L554 286L607 424L529.5 520L368.5 588.5L209.5 520.5Z" fill="#E5E2D1"/>
<path d="M341 316L302 281L223 306L156.5 403L221 456.5L279 439L341 395V348.5V316Z" fill="#F3F1E5"/>
<path d="M395.5 316L435.5 281L514.5 306L580.5 403L516.5 456L458 439L395.5 395V316Z" fill="#F3F1E5"/>
<path d="M306 309L341.5 349V395L279 439L221.5 456.5L157 403L234 331.5L306 309Z" fill="#12151B"/>
<path d="M432 309L396 349L395.5 395L457.5 439L517 456L581 403L505.5 332L432 309Z" fill="#12151B"/>
<path d="M469.5 391.501C479 386 490 368 487 353.001C476 341 447.5 339 437.501 347.5C422 359.181 417.5 372.501 418.5 387.501C429.5 396 452.5 403.5 469.5 391.501Z" fill="white"/>
<path d="M469.057 389.886C480.083 381.577 482.286 365.902 473.977 354.875C465.668 343.848 449.993 341.645 438.966 349.955C427.939 358.264 425.736 373.939 434.045 384.966C442.355 395.993 458.03 398.196 469.057 389.886Z" fill="#FAAF2E"/>
<path d="M463.04 384.42C470.758 378.604 472.301 367.631 466.484 359.913C460.667 352.194 449.695 350.652 441.976 356.468C434.257 362.285 432.715 373.257 438.532 380.976C444.348 388.695 455.321 390.237 463.04 384.42Z" fill="#0D0E12"/>
<path opacity="0.9" d="M463.011 366.995C465.217 365.333 465.657 362.198 463.995 359.993C462.334 357.787 459.199 357.347 456.993 359.009C454.788 360.67 454.347 363.805 456.009 366.011C457.671 368.216 460.806 368.657 463.011 366.995Z" fill="white"/>
<path d="M267.754 391.817C258.254 386.316 247.254 368.316 250.254 353.318C261.254 341.316 289.754 339.316 299.753 347.817C315.254 359.497 319.754 372.817 318.754 387.817C307.754 396.316 284.754 403.816 267.754 391.817Z" fill="white"/>
<path d="M269.943 389.886C258.917 381.577 256.714 365.902 265.023 354.875C273.332 343.848 289.007 341.645 300.034 349.955C311.061 358.264 313.264 373.939 304.955 384.966C296.645 395.993 280.97 398.196 269.943 389.886Z" fill="#FAAF2E"/>
<path d="M273.96 384.42C266.242 378.604 264.699 367.631 270.516 359.913C276.333 352.194 287.305 350.652 295.024 356.468C302.743 362.285 304.285 373.257 298.468 380.976C292.652 388.695 281.679 390.237 273.96 384.42Z" fill="#0D0E12"/>
<path opacity="0.9" d="M287.994 367.995C285.788 366.333 285.348 363.198 287.009 360.993C288.671 358.787 291.806 358.347 294.012 360.009C296.217 361.67 296.658 364.805 294.996 367.011C293.334 369.216 290.199 369.657 287.994 367.995Z" fill="white"/>
<path d="M333.5 456L349 442.5H388L403.5 456V478L385 497H375V517C375 520 378.5 520 386 520C394 520 409 510 416 507.938C417.5 507.496 420.608 513.12 419.5 514C402.5 527.5 389.754 532.989 368.5 533C347.497 533.011 325.967 522 318.5 514C316.466 511.821 320.3 507 322 508C330.5 513 344 520 354 520C357.337 520 362 520 362 517V497H352L333.5 478V456Z" fill="#34393D"/>
<path d="M333.5 456L349 442.5L341 395L279 439L280 501C280 501 322 552 369 552C416 552 457.5 502 457.5 502V439L395.5 395L388 442.5L403.5 456V478L385 497H375V517C375 520 378.5 520 386 520C394 520 409 510 416 507.938C417.5 507.496 420.608 513.12 419.5 514C402.5 527.5 389.754 532.989 368.5 533C347.497 533.011 325.967 522 318.5 514C316.466 511.821 320.3 507 322 508C330.5 513 344 520 354 520C357.337 520 362 520 362 517V497H352L333.5 478V456Z" fill="#F1F1E3"/>
<path d="M550.5 140.5C512.5 148.5 445 202 445 202L554 286C584 211 580 169.5 550.5 140.5Z" fill="#32363A"/>
<path d="M547.5 158.5C516 173.5 484 232 484 232L543 277.5C565 213 568.5 187 547.5 158.5Z" fill="#A0A19B"/>
<path d="M509 194C503.5 199.5 484 232 484 232L521.5 261L519.5 235.5L502.5 224C502.5 224 506 208.5 509 194Z" fill="#DD8F33"/>
<path d="M186.65 140.5C224.65 148.5 292.15 202 292.15 202L183.15 286C153.15 211 157.15 169.5 186.65 140.5Z" fill="#32363A"/>
<path d="M189.65 158.5C221.15 173.5 253.15 232 253.15 232L194.15 277.5C172.15 213 168.65 187 189.65 158.5Z" fill="#A0A19B"/>
<path d="M228.15 194C233.65 199.5 253.15 232 253.15 232L215.65 261L217.65 235.5L234.65 224C234.65 224 231.15 208.5 228.15 194Z" fill="#DD8F33"/>
</svg>
